# xmcd
#
# Track frame offsets:
#	150
#	24471
#	45833
#	73474
#	97529
#	125900
#	144685
#	171025
#	197232
#	216625
#
# Disc length: 3084 seconds
#
# Revision: 0
# Processed by: cddbd v1.5.2PL0 Copyright (c) Steve Scherf et al.
# Submitted via: dBpowerAMP V4.0
#
DISCID=960c0a0a
DTITLE=Danny Bryant's Red Eye Band - Black And White
DYEAR=2008
DGENRE=Bluesrock
TTITLE0=Tell Me
TTITLE1=Between The Lines
TTITLE2=Love Remains
TTITLE3=Twenty One
TTITLE4=Any Wonder
TTITLE5=Low Down Blues
TTITLE6=Walk Away
TTITLE7=Old Blues Song
TTITLE8=Last Goodbye
TTITLE9=Black And White
EXTD=
EXTT0=
EXTT1=
EXTT2=
EXTT3=
EXTT4=
EXTT5=
EXTT6=
EXTT7=
EXTT8=
EXTT9=
PLAYORDER=
